<?xml version="1.0" encoding="UTF-8"?>
<svg id="Camada_2" data-name="Camada 2" xmlns="http://www.w3.org/2000/svg" xmlns:xlink="http://www.w3.org/1999/xlink" viewBox="0 0 494.29 492.31">
  <defs>
    <style>
      .cls-1 {
        fill: #fff;
      }

      .cls-2 {
        fill: none;
      }

      .cls-3 {
        clip-path: url(#clippath);
      }
    </style>
    <clipPath id="clippath">
      <rect class="cls-2" width="494.29" height="492.31"/>
    </clipPath>
  </defs>
  <g id="Camada_1-2" data-name="Camada 1">
    <g class="cls-3">
      <path class="cls-1" d="M182.51,200.63c-6.02-6.03-15.03-7.88-22.94-4.71l-1.3.52c-7.92,3.17-16.92,1.31-22.94-4.71L17.14,73.55c6.47-3.08,14.46-1.95,19.81,3.4l88.5,88.5c10.6,10.6,27.24,11.97,38.71,3.18,6.65-5.1,10.78-12.8,11.33-21.14.55-8.37-2.51-16.55-8.4-22.44L77.97,35.92c-5.35-5.35-6.48-13.34-3.4-19.81l118.18,118.18c6.03,6.03,7.88,15.03,4.71,22.94l-.52,1.3c-3.16,7.91-1.32,16.92,4.71,22.94l36.81,36.81,8.2-8.2-36.81-36.81c-2.74-2.74-3.58-6.83-2.14-10.43l.52-1.3c4.89-12.23,2.03-26.15-7.28-35.46L77.97,3.1c-2.17-2.18-6.03-2.18-8.2,0-5.48,5.48-8.5,12.76-8.5,20.51s3.02,15.03,8.5,20.51l89.12,89.12c3.53,3.53,5.36,8.44,5.03,13.48-.34,5.08-2.75,9.59-6.81,12.7-6.87,5.26-16.95,4.33-23.45-2.17L45.15,68.74c-5.48-5.48-12.76-8.5-20.51-8.5s-15.03,3.02-20.51,8.5c-2.27,2.26-2.27,5.94,0,8.2l122.99,122.99c9.31,9.31,23.23,12.17,35.46,7.28l1.3-.52c3.59-1.44,7.69-.6,10.43,2.14l36.81,36.81,8.2-8.2-36.81-36.81Z"/>
      <path class="cls-1" d="M347.13,294.14c-3.29-3.29-7.66-5.1-12.31-5.1-2.63,0-5.15.64-7.46,1.74l-45.14-45.14-8.2,8.21,44.39,44.39-19.14,19.14-44.39-44.39-8.2,8.2,45.15,45.15c-3.07,6.46-1.99,14.42,3.35,19.76l134.01,134.01c6.92,6.92,16.14,10.73,25.98,10.73s19.07-3.81,25.98-10.73c6.92-6.92,10.73-16.14,10.73-25.98s-3.81-19.07-10.73-25.98l-134.01-134.01ZM472.93,471.91c-9.8,9.8-25.75,9.8-35.55,0l-134.01-134.01c-2.26-2.26-2.26-5.94,0-8.21l27.35-27.35c1.1-1.1,2.55-1.7,4.1-1.7s3.01.6,4.1,1.7l134.01,134.01c9.8,9.8,9.8,25.75,0,35.56"/>
      <rect class="cls-1" x="227.19" y="245.78" width="11.6" height="27.07" transform="translate(-115.12 240.7) rotate(-45)"/>
      <rect class="cls-1" x="254.54" y="218.43" width="11.6" height="27.07" transform="translate(-87.77 252.03) rotate(-45)"/>
      <path class="cls-1" d="M284.99,188.18c4.1-4.11,6.37-9.79,6.22-15.59l-1.32-50.78c-.12-4.75,1.73-9.4,5.09-12.76L390.74,13.29c2.26-2.26,5.95-2.26,8.21,0l82.05,82.05c1.1,1.1,1.7,2.55,1.7,4.1s-.61,3.01-1.7,4.1l-95.48,95.48c-3.49,3.49-8.34,5.33-13.24,5.07l-52.14-2.8c-6-.3-11.92,1.94-16.18,6.2l-29.94,29.94,8.2,8.2,29.94-29.94c1.94-1.94,4.64-2.96,7.35-2.82l52.14,2.8c8.2.41,16.25-2.64,22.07-8.46l95.48-95.47c3.29-3.29,5.1-7.66,5.1-12.31s-1.81-9.02-5.1-12.31L407.14,5.09c-6.79-6.78-17.83-6.79-24.61,0l-95.75,95.75c-5.6,5.6-8.69,13.35-8.48,21.26l1.32,50.78c.07,2.64-.96,5.22-2.83,7.09l-30.12,30.12,8.21,8.2,30.12-30.12Z"/>
      <path class="cls-1" d="M192.6,318.86l-19.15-19.14,45.87-45.86-8.21-8.21-46.61,46.61c-2.31-1.1-4.83-1.74-7.46-1.74-4.65,0-9.02,1.81-12.31,5.1L10.73,429.62c-6.92,6.92-10.73,16.14-10.73,25.98s3.81,19.07,10.73,25.98,16.14,10.73,25.98,10.73,19.07-3.81,25.98-10.73l134.01-134.01c5.34-5.34,6.41-13.29,3.35-19.76l46.62-46.62-8.2-8.2-45.87,45.86ZM188.5,339.37L54.49,473.38c-9.8,9.8-25.75,9.8-35.56,0-9.8-9.8-9.8-25.75,0-35.55l134.01-134.01c1.1-1.1,2.55-1.7,4.1-1.7s3.01.6,4.1,1.7l27.35,27.35c2.26,2.26,2.26,5.94,0,8.21"/>
      <rect class="cls-1" x="268.21" y="239.84" width="11.6" height="11.6" transform="translate(-93.44 265.68) rotate(-45)"/>
      <rect class="cls-1" x="240.87" y="267.19" width="11.6" height="11.6" transform="translate(-120.79 254.38) rotate(-45)"/>
      <rect class="cls-1" x="213.52" y="239.84" width="11.6" height="11.6" transform="translate(-109.46 227.03) rotate(-45)"/>
      <rect class="cls-1" x="240.87" y="212.49" width="11.6" height="11.6" transform="translate(-82.11 238.34) rotate(-45)"/>
      <path class="cls-1" d="M337.42,154.89c1.13,1.13,2.62,1.7,4.1,1.7s2.97-.57,4.1-1.7l78.07-78.07c2.27-2.27,2.27-5.94,0-8.2-2.27-2.27-5.94-2.27-8.2,0l-78.07,78.07c-2.27,2.26-2.27,5.94,0,8.2"/>
      <path class="cls-1" d="M360.29,177.75c1.13,1.13,2.62,1.7,4.1,1.7s2.97-.57,4.1-1.7l78.07-78.07c2.27-2.26,2.27-5.94,0-8.2-2.27-2.27-5.94-2.27-8.2,0l-78.07,78.07c-2.27,2.26-2.27,5.94,0,8.2"/>
      <path class="cls-1" d="M320.63,135.69c1.48,0,2.97-.57,4.1-1.7l78.07-78.07c2.27-2.26,2.27-5.94,0-8.2-2.27-2.27-5.94-2.27-8.2,0l-78.07,78.07c-2.27,2.26-2.27,5.94,0,8.2,1.13,1.13,2.62,1.7,4.1,1.7"/>
    </g>
  </g>
</svg>