<?xml version="1.0" encoding="UTF-8"?>
<svg id="Camada_2" data-name="Camada 2" xmlns="http://www.w3.org/2000/svg" xmlns:xlink="http://www.w3.org/1999/xlink" viewBox="0 0 494.88 494">
  <defs>
    <style>
      .cls-1 {
        fill: #fff;
      }

      .cls-2 {
        fill: none;
      }

      .cls-3 {
        clip-path: url(#clippath);
      }
    </style>
    <clipPath id="clippath">
      <rect class="cls-2" width="494.88" height="494"/>
    </clipPath>
  </defs>
  <g id="Camada_1-2" data-name="Camada 1">
    <g class="cls-3">
      <path class="cls-1" d="M439.9,235.69c4.89.05,9.83.04,14.61.03,4.2-.01,8.4,0,12.6,0,2.1,0,4.24.01,6.39.01,2.85,0,5.73-.01,8.58-.05,7.18-.09,10.25-3.66,11.45-5.79,1.46-2.6,2.47-6.94-1.03-12.86-6.75-11.4-13.79-23.13-20.9-34.84-2.89-4.76-6.49-7.18-10.68-7.18h0c-2.86,0-7.01,1.22-10.54,7.01-7.33,12.05-14.45,23.91-21.17,35.23-3.45,5.81-2.45,10.08-1.01,12.64,1.46,2.6,4.68,5.71,11.7,5.78M460.94,193.55c5.53,9.13,11,18.24,16.31,27.18-3.38.01-6.77,0-10.08,0-2.14,0-4.27-.01-6.41-.01s-4.18,0-6.27.01c-3.24,0-6.56.02-9.88,0,5.25-8.82,10.72-17.93,16.33-27.18"/>
      <path class="cls-1" d="M482.26,264.15c-5.02-.07-10.1-.05-15-.04-2.11,0-4.23.01-6.34.01h0c-2.17,0-4.26,0-6.39-.01-4.89-.01-9.95-.03-14.96.04-7.11.1-10.17,3.67-11.36,5.79-1.18,2.1-2.63,6.52.91,12.49,7.13,12.04,14.34,24.03,21.42,35.65,3.38,5.55,7.51,6.71,10.37,6.72h0c2.34,0,6.78-.86,10.31-6.63,6.98-11.41,13.99-23.08,21.43-35.67,3.54-5.98,2.07-10.43.88-12.54-1.19-2.12-4.25-5.71-11.28-5.8M460.91,306.26c-5.41-8.9-10.88-18-16.32-27.16,3.31-.01,6.64,0,9.89,0,2.14,0,4.28,0,6.43.01,2.13,0,4.26,0,6.39-.01,3.26,0,6.6-.02,9.93,0-5.6,9.45-10.98,18.4-16.31,27.16"/>
      <path class="cls-1" d="M408.17,0H7.5C3.36,0,0,3.36,0,7.5v479c0,4.14,3.36,7.5,7.5,7.5h400.67c4.14,0,7.5-3.36,7.5-7.5V7.5c0-4.14-3.36-7.5-7.5-7.5M208,479h-7.67V91h7.67v388ZM363.54,76H47.16v-21.9h316.38v21.9ZM47.16,93h138.17v386H47.16V93ZM223,93h136.5v386h-136.5V93ZM400.67,479h-22.13V46.6c0-4.14-3.36-7.5-7.5-7.5H39.66c-4.14,0-7.5,3.36-7.5,7.5v432.4H15V15h385.67v464Z"/>
    </g>
  </g>
</svg>