<?xml version="1.0" encoding="UTF-8"?>
<svg id="Camada_2" data-name="Camada 2" xmlns="http://www.w3.org/2000/svg" xmlns:xlink="http://www.w3.org/1999/xlink" viewBox="0 0 4938.75 4946.23">
  <defs>
    <style>
      .cls-1 {
        fill: #fff;
      }

      .cls-2 {
        fill: none;
      }

      .cls-3 {
        clip-path: url(#clippath);
      }
    </style>
    <clipPath id="clippath">
      <rect class="cls-2" width="4938.75" height="4946.23"/>
    </clipPath>
  </defs>
  <g id="Camada_1-2" data-name="Camada 1">
    <g class="cls-3">
      <path class="cls-1" d="M4744.63,2071.81l-4.92,33.77c-4.29,29.33-21.35,54.86-46.83,70.03-25.46,15.18-56.03,18.04-83.88,7.83l-503.07-184.3c84.57-225.47,132.34-443.25,141.95-648.5,8.78-187.7-14.04-365.42-67.85-528.2-15.78-47.77-33.35-91.37-51.66-131.05,445.07,297.29,696.07,833.87,616.26,1380.42M2120.14,1233.11c-9.65-28.04-6.17-58.55,9.5-83.71l18.05-28.96c288.51-462.93,817.04-709.99,1342.36-657.71-228.47,99.27-436.88,275.66-614.71,522.72-132.93,184.68-217.58,364.56-260.44,467.48l-435.79-159.66c-27.84-10.19-49.33-32.13-58.97-60.16M3937.51,1937.45l-1153.79-422.68c40.48-95.77,119.31-261.49,239.95-428.26,230.35-318.42,501.78-497.3,807.37-532.23,95.86,108.82,417.24,556.36,106.47,1383.17M4468.58,3867.17c53.45,22.92,85.85,79.04,78.85,136.31l-.16,1.25c-4.74,38.72-25.3,71.85-57.88,93.27-32.35,21.28-72.28,27.19-109.52,16.26-441.74-129.71-883.42-199.49-1318.07-208.62l60.52-311.2c410.16,1.65,874.63,70.47,1346.26,272.73M2633.95,3916.46c-465.96,33.68-817.24,131.66-1029.87,207.92-61.34,21.99-128.3-3.78-159.25-61.29l-597.51-1110.6c-16.93-31.45-20.31-67.52-9.53-101.58,10.79-34.05,34.33-61.59,66.28-77.57,18.68-9.34,38.58-13.76,58.23-13.76,47.83,0,94.06,26.25,117.08,71.63l410.85,809.79c69.14,136.27,230.51,202.4,375.33,153.86,210.78-70.65,596.7-175.74,1073.26-196.72l-59.76,307.32c-82.01,1.51-163.73,5.12-245.11,11M3894.37,372.66c-342.29-125.39-720.64-129.17-1065.38-10.66-344.73,118.53-640.77,354.18-833.57,663.55l-18.05,28.95c-44.38,71.22-54.19,157.58-26.91,236.94,27.28,79.36,88.13,141.44,166.93,170.31l502.1,183.94c5.58,3.39,11.58,6.29,18.03,8.46,4.85,1.63,9.74,2.72,14.62,3.5l619.88,227.09-298.06,1532.72c-518.42,17.33-938.71,131.28-1165.42,207.29-61.07,20.48-129.13-7.43-158.3-64.93l-410.85-809.79c-76.97-151.72-263.4-213.25-415.56-137.16-75.73,37.86-131.5,103.15-157.07,183.86-25.57,80.71-17.56,166.21,22.55,240.77l597.52,1110.6c55.73,103.59,160.85,163.72,272.01,163.71,35.12,0,70.86-6.01,105.81-18.54,97.24-34.88,239.09-79.13,419.77-117.91l-389.41,634.21c-25.92,42.22-12.71,97.46,29.51,123.39,14.64,8.99,30.84,13.27,46.86,13.27,30.14,0,59.59-15.2,76.53-42.78l473.61-771.35c155.12-23.47,330.06-40.68,522.39-45.87l-129.44,665.61c-9.46,48.64,22.3,95.73,70.92,105.19,5.8,1.12,11.55,1.66,17.24,1.66,42.07,0,79.62-29.75,87.95-72.6l136.33-701.01c168.83,2.37,349.23,14.34,539.98,39.37l478.31,779c16.94,27.58,46.38,42.78,76.53,42.78,16.01,0,32.22-4.28,46.86-13.27,42.23-25.93,55.43-81.17,29.51-123.39l-398.36-648.78c169.68,30.71,346.46,71.85,529.58,125.63,87.91,25.81,182.19,11.78,258.65-38.5,76.22-50.13,126.3-130.82,137.37-221.19l.15-1.26c16.67-136.13-59.89-269.04-186.19-323.2-483.7-207.44-959.63-281.42-1382.19-286.73l285.53-1468.3,1104.64,404.68c31.14,11.4,63.47,17.04,95.65,17.04,49.27,0,98.18-13.22,141.79-39.21,72.09-42.95,120.4-115.22,132.52-198.25l4.93-33.76c52.67-360.71-21.09-731.83-207.67-1045-186.58-313.16-477.84-554.69-820.13-680.08"/>
      <path class="cls-1" d="M900.68,531.09c203.8,0,369.61,165.8,369.61,369.6s-165.81,369.6-369.61,369.6-369.6-165.8-369.6-369.6,165.81-369.6,369.6-369.6M89.71,810.98c-49.55,0-89.71,40.16-89.71,89.71s40.16,89.71,89.71,89.71h269.4c13.97,84.59,47.35,162.67,95.39,229.61l-190.7,190.69c-35.03,35.04-35.03,91.84,0,126.87,17.52,17.52,40.47,26.27,63.44,26.27s45.92-8.75,63.43-26.27l190.7-190.69c66.93,48.04,145.01,81.42,229.6,95.38v269.4c0,49.55,40.17,89.71,89.71,89.71s89.71-40.16,89.71-89.71v-269.4c84.6-13.96,162.68-47.34,229.61-95.38l190.69,190.69c17.52,17.52,40.48,26.27,63.44,26.27s45.92-8.75,63.43-26.27c35.03-35.03,35.03-91.83,0-126.87l-190.69-190.69c48.04-66.94,81.42-145.02,95.39-229.61h269.4c49.54,0,89.71-40.16,89.71-89.71s-40.17-89.71-89.71-89.71h-269.4c-13.97-84.59-47.35-162.68-95.39-229.61l190.69-190.69c35.03-35.03,35.03-91.83,0-126.87-35.03-35.03-91.83-35.03-126.87,0l-190.69,190.69c-66.93-48.04-145.01-81.42-229.61-95.38V89.71C990.39,40.17,950.23,0,900.68,0s-89.71,40.16-89.71,89.7v269.41c-84.59,13.96-162.67,47.34-229.6,95.38l-190.7-190.69c-35.03-35.04-91.83-35.04-126.87,0-35.03,35.04-35.03,91.84,0,126.87l190.7,190.69c-48.04,66.93-81.42,145.02-95.39,229.61H89.71Z"/>
    </g>
  </g>
</svg>