<?xml version="1.0" encoding="UTF-8"?>
<svg id="Camada_2" data-name="Camada 2" xmlns="http://www.w3.org/2000/svg" xmlns:xlink="http://www.w3.org/1999/xlink" viewBox="0 0 188 492.31">
  <defs>
    <style>
      .cls-1 {
        fill: #fff;
      }

      .cls-2 {
        fill: none;
      }

      .cls-3 {
        clip-path: url(#clippath);
      }
    </style>
    <clipPath id="clippath">
      <rect class="cls-2" width="188" height="492.31"/>
    </clipPath>
  </defs>
  <g id="Camada_1-2" data-name="Camada 1">
    <g class="cls-3">
      <path class="cls-1" d="M180.5,15H7.5C3.36,15,0,11.64,0,7.5S3.36,0,7.5,0h173c4.14,0,7.5,3.36,7.5,7.5s-3.36,7.5-7.5,7.5"/>
      <polygon class="cls-1" points="31.77 68.99 94 26.76 156.23 68.99 31.77 68.99"/>
      <path class="cls-1" d="M180.5,492.31H7.5c-4.14,0-7.5-3.36-7.5-7.5s3.36-7.5,7.5-7.5h173c4.14,0,7.5,3.36,7.5,7.5s-3.36,7.5-7.5,7.5"/>
      <polygon class="cls-1" points="156.23 425.39 94 467.62 31.77 425.39 156.23 425.39"/>
      <path class="cls-1" d="M94,387.38c-4.3,0-7.78,3.48-7.78,7.78s3.48,7.78,7.78,7.78,7.78-3.48,7.78-7.78-3.48-7.78-7.78-7.78"/>
      <path class="cls-1" d="M94,360.29c-4.3,0-7.78,3.48-7.78,7.78s3.48,7.78,7.78,7.78,7.78-3.48,7.78-7.78-3.48-7.78-7.78-7.78"/>
      <path class="cls-1" d="M94,333.2c-4.3,0-7.78,3.48-7.78,7.78s3.48,7.78,7.78,7.78,7.78-3.48,7.78-7.78-3.48-7.78-7.78-7.78"/>
      <path class="cls-1" d="M94,306.1c-4.3,0-7.78,3.48-7.78,7.78s3.48,7.78,7.78,7.78,7.78-3.48,7.78-7.78-3.48-7.78-7.78-7.78"/>
      <path class="cls-1" d="M94,279.01c-4.3,0-7.78,3.48-7.78,7.78s3.48,7.78,7.78,7.78,7.78-3.48,7.78-7.78-3.48-7.78-7.78-7.78"/>
      <path class="cls-1" d="M94,251.92c-4.3,0-7.78,3.48-7.78,7.78s3.48,7.78,7.78,7.78,7.78-3.48,7.78-7.78-3.48-7.78-7.78-7.78"/>
      <path class="cls-1" d="M94,224.83c-4.3,0-7.78,3.48-7.78,7.78s3.48,7.78,7.78,7.78,7.78-3.48,7.78-7.78-3.48-7.78-7.78-7.78"/>
      <path class="cls-1" d="M94,197.74c-4.3,0-7.78,3.48-7.78,7.78s3.48,7.78,7.78,7.78,7.78-3.48,7.78-7.78-3.48-7.78-7.78-7.78"/>
      <path class="cls-1" d="M94,170.65c-4.3,0-7.78,3.48-7.78,7.78s3.48,7.78,7.78,7.78,7.78-3.48,7.78-7.78-3.48-7.78-7.78-7.78"/>
      <path class="cls-1" d="M94,143.56c-4.3,0-7.78,3.48-7.78,7.78s3.48,7.78,7.78,7.78,7.78-3.48,7.78-7.78-3.48-7.78-7.78-7.78"/>
      <path class="cls-1" d="M94,116.47c-4.3,0-7.78,3.48-7.78,7.78s3.48,7.78,7.78,7.78,7.78-3.48,7.78-7.78-3.48-7.78-7.78-7.78"/>
      <path class="cls-1" d="M94,104.93c4.3,0,7.78-3.48,7.78-7.78s-3.48-7.78-7.78-7.78-7.78,3.48-7.78,7.78,3.48,7.78,7.78,7.78"/>
    </g>
  </g>
</svg>