<?xml version="1.0" encoding="UTF-8"?>
<svg id="Camada_2" data-name="Camada 2" xmlns="http://www.w3.org/2000/svg" xmlns:xlink="http://www.w3.org/1999/xlink" viewBox="0 0 512.11 425.32">
  <defs>
    <style>
      .cls-1 {
        fill: #fff;
      }

      .cls-2 {
        fill: none;
      }

      .cls-3 {
        clip-path: url(#clippath);
      }
    </style>
    <clipPath id="clippath">
      <rect class="cls-2" width="512.11" height="425.32"/>
    </clipPath>
  </defs>
  <g id="Camada_1-2" data-name="Camada 1">
    <g class="cls-3">
      <path class="cls-1" d="M179.82,100.53c3.53.33,16.61,2.83,16.05,9.13-.01.15-.02.3-.02.45,0,2.56,1.96,4.74,4.56,4.98.15.01.3.02.45.02,2.56,0,4.74-1.96,4.98-4.56.56-6.3,13.88-6.45,17.41-6.15,2.76.25,5.17-1.79,5.42-4.54.24-2.75-1.79-5.18-4.54-5.42-6.51-.58-16.13.17-22.31,4.7-1.98-2.09-4.86-4.09-9.01-5.71-5.88-2.29-11.83-2.84-12.08-2.87-2.75-.24-5.17,1.78-5.42,4.53-.25,2.75,1.78,5.18,4.52,5.43"/>
      <path class="cls-1" d="M493.26,409.32h-90.65v-94.65c36.12-1.59,64.07-14.78,83.17-39.28,17.23-22.11,26.33-53.03,26.33-89.41,0-41.27-12.05-87.64-32.24-124.06C458.05,22.57,429.71,0,402.11,0,381.79,0,361.18,11.87,342.52,34.33c-20.75,24.96-39.05,63.18-50.23,104.86-8.32,31.04-12.15,61.25-11.32,87.72-9.91-7.59-22.14-11.83-35.14-11.83-1.91,0-3.85.1-5.81.31-6.8-24.73-29.56-42.55-55.79-42.55-31.93,0-57.91,25.98-57.91,57.91,0,2.56.17,5.11.5,7.63-14.18,1.71-26.79,8.58-35.91,18.65v-88.24h11.7c3.62,0,6.72-2.58,7.38-6.14l11.4-61.92s0,0,0,0c.05-.27.08-.54.1-.81,0-.02,0-.04,0-.06.02-.24.02-.48.01-.72,0-.07-.01-.14-.01-.21-.01-.19-.03-.37-.05-.56-.01-.1-.03-.19-.05-.29-.03-.16-.06-.31-.1-.47-.03-.11-.06-.23-.09-.34-.02-.08-.04-.17-.07-.25l-11.4-34.38c-1.02-3.07-3.89-5.14-7.12-5.14h-11.72c-.2-3.96-3.47-7.11-7.48-7.11s-7.28,3.15-7.48,7.11h-11.72c-3.23,0-6.1,2.07-7.12,5.14l-11.4,34.38c-.03.08-.05.17-.07.25-.03.11-.07.22-.09.34-.04.16-.07.31-.1.47-.02.1-.04.19-.05.29-.03.19-.04.37-.05.56,0,.07-.01.14-.01.21,0,.24,0,.48.01.72,0,.02,0,.04,0,.06.02.27.05.54.1.81h0s11.4,61.93,11.4,61.93c.66,3.56,3.76,6.14,7.38,6.14h11.7v178.31c-10.33,3.35-18.72,11.36-22.45,21.67-19.87-.49-36.2,15.59-36.2,35.38,0,1.73.14,3.45.4,5.16H7.5C3.36,409.32,0,412.68,0,416.82s3.36,7.5,7.5,7.5h20.28s0,0,.01,0c0,0,.01,0,.02,0h363.57c1.1.63,2.37,1,3.73,1s2.63-.37,3.73-1h94.42c4.14,0,7.5-3.36,7.5-7.5s-3.36-7.5-7.5-7.5M69.62,72.51h27.57l6.42,19.38h-40.42l6.43-19.38ZM61.82,106.88h43.18l-8.64,46.92h-25.91l-8.64-46.92ZM133.82,252.97c.31,0,.61.03.91.05.32.02.65.04.98.06,2.44.11,4.77-.97,6.27-2.9,1.49-1.93,1.96-4.46,1.24-6.79-1.25-4.09-1.89-8.34-1.89-12.62,0-23.66,19.25-42.91,42.91-42.91,21.37,0,39.63,15.97,42.47,37.15.28,2.1,1.44,3.98,3.19,5.18,1.75,1.2,3.92,1.61,5.98,1.11,3.39-.81,6.74-1.21,9.96-1.21,15.08,0,28.78,7.7,36.65,20.59.25.42.54.79.86,1.14.16.94.29,1.9.47,2.83.76,4.07,4.67,6.76,8.74,6,4.07-.76,6.76-4.67,6-8.75-11.43-61.48,14.5-158.67,55.49-207.98,10.96-13.19,28.2-28.92,48.06-28.92,46.17,0,95,87.89,95,170.98,0,33.01-8.01,60.74-23.17,80.19-16.14,20.71-40.11,31.95-71.33,33.48v-49.67h0v-30.45l43.99-43.99c2.93-2.93,2.93-7.68,0-10.61s-7.68-2.93-10.61,0l-33.38,33.38v-35.13c0-4.14-3.36-7.5-7.5-7.5s-7.5,3.36-7.5,7.5v53.24h0v15.45l-33.38-33.38c-2.93-2.93-7.68-2.93-10.61,0-2.93,2.93-2.93,7.68,0,10.61l43.99,43.99v46.55c-5.08-.25-9.99-.74-14.65-1.5-4.08-.67-7.94,2.1-8.61,6.19-.67,4.09,2.1,7.94,6.19,8.61,5.44.89,11.16,1.46,17.07,1.73v94.66h-50.21v-19.19h3.3c4.14,0,7.5-3.36,7.5-7.5s-3.36-7.5-7.5-7.5h-3.3v-53.9c0-4.14-3.36-7.5-7.5-7.5h-158.67c-4.14,0-7.5,3.36-7.5,7.5v53.9h-3.3c-4.14,0-7.5,3.36-7.5,7.5s3.36,7.5,7.5,7.5h3.3v19.19h-14.54c-2.93-13.51-13.6-24.18-27.11-27.09.02-.48.03-.96.03-1.43,0-18.09-13.65-33.05-31.2-35.13v-49.78c0-23.66,19.25-42.91,42.91-42.91M322.4,344.43h-143.67v-15.7h143.67v15.7ZM178.72,359.43h143.68v15.7h-143.68v-15.7ZM322.4,409.32h-143.67v-19.19h143.67v19.19ZM32.25,404.16c0-11.24,9.15-20.39,20.39-20.39,1.54,0,3.09.19,4.73.58,2.06.49,4.24.08,5.98-1.11,1.75-1.2,2.9-3.08,3.19-5.18,1.35-10.06,10.02-17.65,20.17-17.65,11.24,0,20.39,9.15,20.39,20.39,0,2.04-.3,4.06-.9,6-.72,2.33-.25,4.87,1.24,6.79,1.49,1.93,3.82,3.02,6.27,2.9.21-.01.41-.02.62-.04.1,0,.2-.02.27-.02,8.59,0,15.94,5.35,18.94,12.89H32.91c-.43-1.67-.66-3.39-.66-5.16"/>
      <path class="cls-1" d="M219.83,141.82c.87,2.62,3.69,4.04,6.31,3.17,3.37-1.11,16.36-4.03,18.36,1.96.7,2.1,2.65,3.42,4.74,3.42.52,0,1.06-.08,1.58-.26,2.1-.7,3.42-2.65,3.42-4.74,0-.52-.08-1.06-.26-1.58-2-5.99,10.15-11.45,13.51-12.59,2.61-.88,4.03-3.71,3.15-6.32-.87-2.62-3.71-4.04-6.32-3.16-6.2,2.07-14.72,6.6-18.58,13.22-2.65-1.13-6.08-1.8-10.54-1.63-6.31.25-11.99,2.12-12.22,2.2-2.62.87-4.03,3.7-3.16,6.31"/>
    </g>
  </g>
</svg>