<?xml version="1.0" encoding="UTF-8"?>
<svg id="Camada_2" data-name="Camada 2" xmlns="http://www.w3.org/2000/svg" xmlns:xlink="http://www.w3.org/1999/xlink" viewBox="0 0 498.89 403.89">
  <defs>
    <style>
      .cls-1 {
        fill: #fff;
      }

      .cls-2 {
        fill: none;
      }

      .cls-3 {
        clip-path: url(#clippath);
      }
    </style>
    <clipPath id="clippath">
      <rect class="cls-2" width="498.89" height="403.89"/>
    </clipPath>
  </defs>
  <g id="Camada_1-2" data-name="Camada 1">
    <g class="cls-3">
      <path class="cls-1" d="M498.89,61.66c0-14.39-26.05-26.05-26.05-26.05,0,0-26.06,11.66-26.06,26.05,0,7.63,3.28,14.49,8.51,19.26h-6.61v1.57c-13.71-11.7-26.52-19.82-39.46-25.09-15.51-6.31-29.17-7.6-42.37-8.85-24.56-2.32-49.95-4.72-91.68-40.4l-9.52-8.14v403.89l231.35-.19V80.91h-6.61c5.23-4.77,8.51-11.63,8.51-19.26M448.67,97.95v201.55h-30.49V74.72c9.15,5.31,19.16,12.73,30.49,23.23M321.72,311.03h36.69v18.35h-36.69v-18.35ZM310.18,329.38h-33v-18.35h33v18.35ZM369.95,311.03h36.69v18.35h-36.69v-18.35ZM418.18,311.03h30.49v18.35h-30.49v-18.35ZM406.64,68.89v230.61h-36.69V60.43c11.75,1.16,23.4,2.74,36.69,8.45M323.55,51.76c12.89,4.7,24.14,6.42,34.86,7.55v240.18h-36.69V51.06c.61.23,1.22.47,1.84.7M310.18,45.99v253.51h-33V24.71c11.41,8.95,22.34,15.99,33,21.27M310.18,392.35h-33v-19.98h33v19.98ZM277.18,340.92h33v19.91h-33v-19.91ZM358.41,392.35h-36.69v-19.98h36.69v19.98ZM321.72,340.92h36.69v19.91h-36.69v-19.91ZM406.64,392.35h-36.69v-19.98h36.69v19.98ZM369.95,340.92h36.69v19.91h-36.69v-19.91ZM448.67,392.35h-30.49v-19.98h30.49v19.98ZM418.18,340.92h30.49v19.91h-30.49v-19.91Z"/>
      <path class="cls-1" d="M132.05,48.54c-13.2,1.25-26.86,2.54-42.37,8.85-12.94,5.27-25.75,13.38-39.46,25.09v-1.57h-6.61c5.23-4.77,8.51-11.63,8.51-19.26,0-14.39-26.06-26.05-26.06-26.05,0,0-26.06,11.66-26.06,26.05,0,7.63,3.28,14.49,8.51,19.26H1.89v322.79l231.35.19V0l-9.52,8.14c-41.73,35.68-67.12,38.08-91.68,40.4M221.71,24.71v274.78h-33V45.99c10.66-5.29,21.59-12.33,33-21.27M140.48,311.03h36.69v18.35h-36.69v-18.35ZM128.94,329.38h-36.69v-18.35h36.69v18.35ZM188.71,311.03h33v18.35h-33v-18.35ZM175.34,51.76c.61-.22,1.22-.46,1.84-.7v248.43h-36.69V59.31c10.71-1.14,21.97-2.85,34.86-7.55M128.94,60.43v239.06h-36.69V68.89c13.29-5.72,24.94-7.29,36.69-8.45M50.22,97.95c11.33-10.5,21.34-17.92,30.49-23.23v224.77h-30.49V97.95ZM50.22,311.03h30.49v18.35h-30.49v-18.35ZM80.71,392.35h-30.49v-19.98h30.49v19.98ZM50.22,340.92h30.49v19.91h-30.49v-19.91ZM128.94,392.35h-36.69v-19.98h36.69v19.98ZM92.25,340.92h36.69v19.91h-36.69v-19.91ZM177.17,392.35h-36.69v-19.98h36.69v19.98ZM140.48,340.92h36.69v19.91h-36.69v-19.91ZM221.71,392.35h-33v-19.98h33v19.98ZM188.71,340.92h33v19.91h-33v-19.91Z"/>
    </g>
  </g>
</svg>