<?xml version="1.0" encoding="UTF-8"?>
<svg id="Camada_2" data-name="Camada 2" xmlns="http://www.w3.org/2000/svg" xmlns:xlink="http://www.w3.org/1999/xlink" viewBox="0 0 494.33 492.31">
  <defs>
    <style>
      .cls-1 {
        fill: #fff;
      }

      .cls-2 {
        fill: none;
      }

      .cls-3 {
        clip-path: url(#clippath);
      }
    </style>
    <clipPath id="clippath">
      <rect class="cls-2" width="494.33" height="492.31"/>
    </clipPath>
  </defs>
  <g id="Camada_1-2" data-name="Camada 1">
    <g class="cls-3">
      <path class="cls-1" d="M470.79,26.76c-18.78-19.82-45.99-28.59-76.62-24.68-29.99,3.83-59.79,19.42-83.89,43.9-23.37,23.74-38.76,53.19-43.56,83.2l-8.96,54.64c-2.44,15.01-4.21,25.85-8.36,35.75-1.02,2.45-2.59,5.19-4.41,7.98-2.58,3.95-5.66,7.99-8.42,11.4-2.14,2.65-4.09,4.92-5.43,6.46-.69.79-1.73,1.95-3.04,3.41-2.26,2.49-5.33,5.87-8.88,9.75-13.69,14.96-34.46,37.47-42.69,46.38-4.15-2.12-9.31-1.43-12.8,2.11l-89.98,91.41c-1.21,1.23-1.9,2.91-1.91,4.67-.02,1.76.64,3.45,1.83,4.71l25.04,26.43c1.26,1.32,2.92,1.99,4.58,1.99s3.24-.64,4.49-1.9l89.97-91.41c3.84-3.9,4.39-9.98,1.61-14.51l45.36-47.41,9.02-9.43c-4.26-4.17-7.56-7.37-9.23-8.94-.05-.04-.09-.09-.14-.13l-9.03,9.44-44.79,46.82-4.6-4.85c8.57-9.28,29.86-32.35,43.5-47.27,3.58-3.92,6.64-7.28,8.79-9.68,1.01-1.11,1.81-2.02,2.39-2.68,1.12-1.27,2.4-2.77,3.78-4.42,2.57-3.1,5.47-6.75,8.19-10.57,3.47-4.84,6.66-9.93,8.56-14.48,4.77-11.38,6.74-23.49,9.24-38.83l.52-3.18c3.96,10.87,9.91,20.65,17.76,28.93,7.77,8.21,17,14.51,27.31,18.81l-2.55.39c-16.77,2.54-28.89,4.37-40.95,10.1-4.12,1.95-8.11,4.32-12.09,7.2-3.34,2.4-6.67,5.16-10.06,8.34.1.12.21.23.32.35.02.02.04.05.07.07l8.72,8.94c3.48-3.21,6.86-5.91,10.24-8.18,2.7-1.82,5.39-3.36,8.13-4.66,10.4-4.93,21.76-6.65,37.47-9.03l52.36-7.98s.05,0,.08,0c29.17-4.34,58.01-19.74,81.46-43.56,24.1-24.49,39.72-55.03,43.98-86.01,4.35-31.63-3.59-59.97-22.38-79.78M187.63,334.65l-84.26,85.6-16.06-16.96,84.25-85.59,16.07,16.95ZM481.03,80.42l-1.97-2.01,1.53-1.59c.17,1.19.31,2.39.44,3.6M479.66,71.5l-.4.42-3.23,3.38-7.57-7.75,7.73-8.08c1.46,3.87,2.62,7.89,3.47,12.03M346.68,122.79l-7.49,7.83-7.56-7.75,7.49-7.83,7.56,7.75ZM342.12,111.89l7.49-7.83,7.56,7.75-7.48,7.83-7.57-7.75ZM349.72,125.9l7.56,7.75-7.49,7.83-7.56-7.75,7.49-7.83ZM352.72,122.76l7.49-7.84,7.56,7.76-7.48,7.83-7.57-7.75ZM399.36,111.59l-7.49,7.83-7.56-7.75,7.49-7.83,7.56,7.75ZM394.8,100.7l7.49-7.84,7.56,7.76-7.49,7.83-7.56-7.75ZM381.27,108.56l-7.56-7.75,7.49-7.83,7.56,7.75-7.49,7.83ZM378.27,111.7l-7.49,7.83-7.56-7.75,7.48-7.83,7.57,7.75ZM370.81,125.79l7.56,7.75-7.48,7.83-7.57-7.75,7.49-7.83ZM373.82,122.64l7.48-7.83,7.57,7.76-7.49,7.83-7.56-7.76ZM391.9,125.68l7.57,7.75-7.49,7.83-7.56-7.75,7.48-7.83ZM394.91,122.53l7.49-7.83,7.56,7.75-7.49,7.84-7.56-7.76ZM405.4,111.56l7.49-7.83,7.56,7.75-7.49,7.83-7.56-7.75ZM415.89,100.58l7.49-7.83,7.56,7.76-7.48,7.83-7.57-7.76ZM426.39,89.61l7.48-7.83,7.57,7.75-7.49,7.83-7.56-7.75ZM423.35,86.5l-7.56-7.75,7.48-7.84,7.57,7.76-7.49,7.83ZM420.34,89.64l-7.48,7.83-7.57-7.75,7.49-7.83,7.56,7.75ZM402.26,86.61l-7.57-7.75,7.49-7.83,7.57,7.75-7.49,7.83ZM399.25,89.75l-7.49,7.83-7.56-7.75,7.49-7.83,7.56,7.75ZM381.16,86.72l-7.56-7.75,7.49-7.83,7.56,7.75-7.49,7.83ZM378.16,89.86l-7.49,7.83-7.56-7.75,7.49-7.83,7.56,7.75ZM367.67,100.84l-7.49,7.83-7.56-7.75,7.48-7.83,7.57,7.75ZM349.58,97.81l-7.56-7.76,7.48-7.83,7.57,7.75-7.49,7.84ZM346.57,100.95l-7.48,7.83-7.57-7.75,7.49-7.83,7.56,7.75ZM336.08,111.92l-7.49,7.83-7.56-7.75,7.49-7.83,7.56,7.75ZM328.62,126.01l7.57,7.75-7.49,7.83-7.56-7.75,7.48-7.83ZM325.7,144.74l-7.49,7.83-7.57-7.75,7.49-7.84,7.57,7.76ZM328.73,147.85l7.57,7.75-7.49,7.83-7.57-7.75,7.49-7.83ZM331.74,144.71l7.48-7.84,7.57,7.76-7.49,7.83-7.56-7.75ZM349.82,147.74l7.57,7.75-7.49,7.83-7.56-7.75,7.48-7.83ZM352.83,144.59l7.49-7.83,7.56,7.75-7.49,7.84-7.56-7.76ZM370.92,147.63l7.56,7.75-7.49,7.83-7.56-7.75,7.49-7.83ZM373.92,144.48l7.49-7.83,7.56,7.75-7.48,7.84-7.57-7.76ZM392.01,147.52l7.56,7.75-7.48,7.83-7.57-7.75,7.49-7.83ZM395.01,144.37l7.49-7.83,7.57,7.75-7.49,7.83-7.57-7.75ZM405.51,133.4l7.49-7.83,7.56,7.75-7.49,7.83-7.56-7.75ZM416,122.42l7.49-7.83,7.56,7.75-7.49,7.84-7.56-7.76ZM426.49,111.45l7.49-7.83,7.56,7.75-7.48,7.83-7.57-7.75ZM436.99,100.47l7.48-7.83,7.57,7.75-7.49,7.84-7.56-7.76ZM444.44,86.39l-7.56-7.75,7.49-7.84,7.56,7.76-7.49,7.83ZM433.84,75.52l-7.56-7.75,7.49-7.83,7.56,7.75-7.49,7.83ZM423.24,64.66l-7.56-7.75,7.49-7.83,7.56,7.75-7.49,7.83ZM420.24,67.8l-7.49,7.83-7.56-7.75,7.48-7.83,7.57,7.75ZM402.15,64.77l-7.56-7.75,7.48-7.83,7.57,7.75-7.49,7.83ZM399.15,67.91l-7.49,7.84-7.57-7.76,7.49-7.83,7.57,7.75ZM381.06,64.88l-7.57-7.75,7.49-7.83,7.57,7.75-7.49,7.83ZM378.05,68.03l-7.49,7.83-7.56-7.76,7.49-7.83,7.56,7.76ZM367.56,79l-7.49,7.83-7.56-7.75,7.49-7.83,7.56,7.75ZM349.47,75.97l-7.56-7.75,7.49-7.84,7.56,7.76-7.49,7.83ZM346.47,79.11l-7.49,7.83-7.56-7.75,7.48-7.83,7.57,7.75ZM335.97,90.09l-7.48,7.83-7.57-7.76,7.49-7.83,7.56,7.76ZM325.48,101.06l-7.49,7.83-7.56-7.75,7.49-7.83,7.56,7.75ZM318.02,115.15l7.57,7.75-7.49,7.83-7.56-7.75,7.48-7.83ZM315.1,133.87l-7.49,7.83-7.57-7.75,7.49-7.83,7.57,7.75ZM307.64,147.96l7.56,7.75-7.48,7.83-7.57-7.75,7.49-7.83ZM318.24,158.82l7.56,7.76-7.48,7.83-7.57-7.76,7.49-7.83ZM328.84,169.69l7.56,7.75-7.48,7.83-7.57-7.75,7.49-7.83ZM331.84,166.54l7.49-7.83,7.57,7.75-7.49,7.84-7.57-7.76ZM349.93,169.58l7.57,7.75-7.49,7.83-7.57-7.75,7.49-7.83ZM352.94,166.43l7.48-7.83,7.57,7.75-7.49,7.83-7.56-7.75ZM371.02,169.47l7.57,7.75-7.49,7.83-7.56-7.75,7.48-7.83ZM374.03,166.32l7.49-7.83,7.56,7.75-7.49,7.83-7.56-7.75ZM392.12,169.35l7.56,7.76-7.49,7.83-7.56-7.75,7.49-7.84ZM395.12,166.21l7.49-7.83,7.56,7.75-7.48,7.83-7.57-7.75ZM405.61,155.24l7.49-7.84,7.57,7.76-7.49,7.83-7.57-7.75ZM416.11,144.26l7.48-7.83,7.57,7.75-7.49,7.83-7.56-7.75ZM426.6,133.29l7.49-7.83,7.56,7.75-7.49,7.83-7.56-7.75ZM437.09,122.31l7.49-7.83,7.56,7.75-7.48,7.83-7.57-7.75ZM447.59,111.34l7.48-7.83,7.57,7.75-7.49,7.83-7.56-7.75ZM455.04,97.25l-7.56-7.75,7.49-7.83,7.56,7.75-7.49,7.83ZM454.94,75.41l-7.57-7.75,7.49-7.83,7.56,7.75-7.48,7.83ZM454.83,53.57l-7.57-7.75,7.49-7.83,7.57,7.75-7.49,7.83ZM451.82,56.72l-7.48,7.83-7.57-7.75,7.49-7.83,7.56,7.75ZM433.74,53.69l-7.57-7.76,7.49-7.83,7.56,7.75-7.48,7.84ZM423.14,42.82l-7.57-7.75,7.49-7.83,7.56,7.75-7.48,7.83ZM420.13,45.96l-7.49,7.84-7.56-7.76,7.49-7.83,7.56,7.75ZM402.04,42.93l-7.56-7.75,7.49-7.83,7.56,7.75-7.49,7.83ZM399.04,46.08l-7.49,7.83-7.56-7.75,7.48-7.84,7.57,7.76ZM380.95,43.04l-7.56-7.75,7.48-7.83,7.57,7.75-7.49,7.83ZM377.95,46.19l-7.49,7.83-7.57-7.75,7.49-7.84,7.57,7.76ZM367.45,57.16l-7.48,7.83-7.57-7.75,7.49-7.83,7.56,7.75ZM349.37,54.13l-7.57-7.75,7.49-7.83,7.56,7.75-7.48,7.83ZM346.36,57.27l-7.49,7.83-7.56-7.75,7.49-7.83,7.56,7.75ZM335.87,68.25l-7.49,7.83-7.56-7.75,7.48-7.84,7.57,7.76ZM325.37,79.22l-7.48,7.83-7.57-7.75,7.49-7.83,7.56,7.75ZM314.88,90.2l-7.49,7.83-7.56-7.75,7.49-7.84,7.56,7.76ZM307.42,104.28l7.57,7.75-7.49,7.84-7.56-7.76,7.48-7.83ZM304.5,123.01l-7.49,7.83-7.57-7.75,7.49-7.83,7.57,7.75ZM297.04,137.1l7.56,7.75-7.48,7.83-7.57-7.75,7.49-7.83ZM294.11,155.82l-7.49,7.83-7.56-7.75,7.49-7.83,7.56,7.75ZM297.15,158.93l7.56,7.76-7.49,7.83-7.56-7.75,7.49-7.84ZM307.75,169.8l7.56,7.75-7.49,7.83-7.56-7.75,7.49-7.83ZM318.35,180.66l7.56,7.75-7.49,7.83-7.56-7.75,7.49-7.83ZM328.95,191.53l7.56,7.75-7.49,7.83-7.56-7.75,7.49-7.83ZM331.95,188.38l7.49-7.83,7.56,7.75-7.48,7.83-7.57-7.75ZM350.04,191.41l7.56,7.76-7.49,7.83-7.56-7.75,7.49-7.84ZM353.04,188.27l7.49-7.83,7.56,7.75-7.48,7.83-7.57-7.75ZM371.13,191.3l7.56,7.76-7.48,7.83-7.57-7.76,7.49-7.83ZM374.14,188.16l7.48-7.83,7.57,7.75-7.49,7.83-7.56-7.75ZM392.22,191.19l7.57,7.75-7.49,7.84-7.56-7.76,7.48-7.83ZM395.23,188.05l7.49-7.83,7.56,7.75-7.49,7.83-7.56-7.75ZM405.72,177.07l7.49-7.83,7.56,7.76-7.48,7.83-7.57-7.76ZM416.21,166.1l7.49-7.83,7.57,7.75-7.49,7.83-7.57-7.75ZM426.71,155.13l7.48-7.84,7.57,7.76-7.49,7.83-7.56-7.75ZM437.2,144.15l7.49-7.83,7.56,7.75-7.49,7.83-7.56-7.75ZM447.69,133.18l7.49-7.84,7.56,7.76-7.48,7.83-7.57-7.75ZM458.19,122.2l7.48-7.83,7.57,7.75-7.49,7.83-7.56-7.75ZM465.64,108.12l-7.56-7.76,7.49-7.83,7.56,7.75-7.49,7.84ZM465.54,86.28l-7.57-7.76,7.49-7.83,7.56,7.76-7.48,7.83ZM465.43,64.44l-7.57-7.75,7.49-7.84,7.57,7.76-7.49,7.83ZM468.89,45.16c.66,1,1.31,2.03,1.92,3.06l-2.45-2.51.53-.55ZM459.03,33.52l.04-.04c.88.83,1.74,1.68,2.58,2.57,1.66,1.76,3.22,3.6,4.67,5.5l-.08.09-.92.96-7.56-7.75,1.27-1.33ZM455.81,30.6l-1.09,1.14-6.24-6.4c2.55,1.58,5,3.33,7.33,5.26M451.72,34.88l-7.49,7.83-7.57-7.75,7.49-7.83,7.57,7.75ZM431.99,17.9c1.6.49,3.18,1.02,4.74,1.62l1.4,1.43,2.99,3.07-7.49,7.83-7.57-7.76,5.61-5.85.32-.34ZM427.22,16.6l-4.19,4.38-5.91-6.06c3.43.36,6.81.91,10.1,1.68M420.02,24.13l-7.48,7.83-7.57-7.75,7.49-7.84,7.56,7.76ZM408.04,14.44c.08,0,.17.01.25.01l-6.35,6.64-5.77-5.9c4-.49,7.97-.75,11.87-.75M391.37,16.49l7.56,7.75-7.49,7.83-7.56-7.75,7.33-7.67.16-.16ZM384.6,17.28l-3.76,3.93-2.26-2.33c2.01-.59,4.01-1.13,6.02-1.6M373.94,20.35l.32.33,3.58,3.67-7.49,7.83-7.34-7.52c3.63-1.63,7.27-3.07,10.93-4.31M359.78,27.57l7.57,7.75-7.49,7.83-7.57-7.75,7.49-7.83ZM350.3,31.21l-1.04,1.08-.3-.3c.45-.27.89-.53,1.34-.78M345.18,34.33l.15.15.92.95-7.48,7.84-2.59-2.66c2.96-2.23,5.96-4.32,9-6.28M332.72,43.3l.09.08,2.95,3.03-7.49,7.83-3.77-3.87c2.69-2.48,5.43-4.84,8.22-7.07M319.26,55.45c.69-.7,1.39-1.39,2.09-2.08l.02.02,3.9,3.99-7.49,7.83-3.89-3.98-.02-.02c1.75-1.95,3.54-3.88,5.39-5.76M311.02,64.51l3.75,3.85-7.48,7.83-2.93-3-.08-.09c2.13-2.92,4.38-5.79,6.74-8.59M301.73,76.72l2.55,2.61-7.49,7.83-.85-.87-.15-.16c1.85-3.19,3.83-6.33,5.94-9.41M293.57,90.09l.22.22-.74.77c.18-.33.35-.66.52-.99M296.83,93.42l7.56,7.75-7.49,7.83-7.56-7.75,7.49-7.83ZM286.72,104.79l7.18,7.36-7.49,7.83-3.31-3.39-.32-.33c1.13-3.85,2.44-7.68,3.94-11.47M281.46,121.13l1.94,1.99-3.14,3.28c.36-1.76.76-3.52,1.2-5.27M278.97,134.05l.82-.86,6.65-6.96,7.56,7.75-7.48,7.84-7.1-7.27-.46-.48s0-.01.01-.02M278.35,139.67l5.16,5.29-5.52,5.77c-.08-3.61.04-7.3.36-11.06M278.91,161.97l4.71,4.83-3.14,3.28c-.65-2.64-1.17-5.34-1.57-8.11M286.73,185.49l-1.32-1.36c-1.38-2.95-2.57-6.02-3.57-9.19l.32-.33,4.49-4.7,7.57,7.75-7.49,7.83ZM289.77,188.6l7.48-7.83,7.57,7.75-7.49,7.84-7.56-7.76ZM300.37,199.47l7.48-7.83,7.57,7.75-7.49,7.83-7.56-7.75ZM319.07,217.51c-.68-.3-1.35-.62-2.02-.94l-1.83-1.87-4.25-4.37,7.48-7.83,7.57,7.75-6.71,7.01-.24.25ZM335.64,222.14l-.42.44c-4.1-.79-8.04-1.9-11.82-3.3l5.65-5.92,7.57,7.76-.98,1.02ZM332.06,210.22l7.49-7.83,7.56,7.75-7.49,7.83-7.56-7.75ZM355.48,223.33l-.64.68c-3.21.12-6.37.07-9.46-.13l-.7-.72-2.02-2.08,7.49-7.83,7.56,7.75-2.23,2.33ZM353.15,210.11l7.49-7.83,7.56,7.75-7.49,7.83-7.56-7.75ZM365.73,223l-.47-.48-1.51-1.55,7.49-7.83,7.06,7.24c-4.17,1.13-8.37,2-12.57,2.62M374.24,210l7.49-7.83,7.56,7.75-7.48,7.83-7.57-7.75ZM388.34,217.2l3.99-4.17,1.83,1.88c-1.93.82-3.87,1.58-5.82,2.29M398.39,213.02l-.24-.24-2.81-2.89,7.48-7.83,5.6,5.74c-3.3,1.89-6.65,3.64-10.03,5.22M412.26,205.5l-.16-.16-6.27-6.43,7.49-7.83,8.07,8.27c-2.99,2.19-6.04,4.24-9.13,6.15M423.89,195.69l-7.57-7.75,7.49-7.83,7.56,7.75-7.48,7.83ZM434.38,184.72l-7.57-7.76,7.49-7.83,7.57,7.75-7.49,7.84ZM444.87,173.74l-7.56-7.75,7.48-7.83,7.57,7.75-7.49,7.83ZM458.34,160.89l-.65-.56-2.33,2.44-7.56-7.76,7.49-7.83,6.98,7.16.14.15c-1.29,2.15-2.65,4.29-4.07,6.4M464.68,150.59l-6.39-6.55,7.49-7.83,3.87,3.96.22.23c-1.58,3.42-3.3,6.82-5.19,10.19M471.75,136.1l-2.96-3.03,6.72-7.04c-1.1,3.37-2.36,6.73-3.76,10.07M478.1,117.04l-1.05,1.09-.81.85-7.56-7.75,7.49-7.83,3.48,3.56.43.45c-.52,3.19-1.18,6.41-1.98,9.63M480.83,101.95l-1.66-1.7,2.03-2.12c-.1,1.27-.23,2.54-.37,3.82M481.5,91.53l-.63.66-4.73,4.95-7.57-7.75,7.49-7.83,4.76,4.88.64.65c.05,1.47.06,2.95.04,4.44"/>
      <path class="cls-1" d="M418.4,400.22l-88.28-93.15c-3.77-3.98-9.64-4.54-14.01-1.66l-46.42-47.62-9.29-9.52-.62-.64c-2.68-2.84-5.07-5.59-7.18-8.3-3.09-3.96-5.59-7.84-7.61-11.78-.59-1.13-1.13-2.25-1.63-3.39-4.77-10.76-6.42-22.52-8.72-38.78l-7.71-54.21s0-.06,0-.09c-4.19-30.2-19.07-60.06-42.08-84.34C161.19,21.79,131.69,5.62,101.78,1.2c-30.56-4.5-57.93,3.73-77.07,23.17C5.57,43.82-2.89,71.99.88,103.7c3.7,31.06,18.75,61.9,42.4,86.86,22.93,24.19,51.37,40.13,80.36,45.1l52.77,9.28c14.5,2.53,24.97,4.35,34.53,8.65,2.53,1.14,5.39,2.92,8.28,4.98,3.55,2.52,7.14,5.46,10.23,8.11,2.35,2.04,4.4,3.9,5.89,5.3.2.18.38.35.56.52,1.58,1.49,4.74,4.55,8.82,8.54,14.11,13.79,39.27,38.68,48.68,48-2.04,4.3-1.38,9.64,2.04,13.25l88.29,93.16c1.19,1.25,2.82,1.97,4.51,1.99,1.7.01,3.34-.67,4.55-1.9l25.53-25.93c1.28-1.3,1.92-3.02,1.92-4.74s-.61-3.35-1.84-4.65M215.23,144.43c.12,3.32.07,6.59-.13,9.78l-.69.73-2,2.1-7.57-7.75,7.49-7.84,2.25,2.31.65.67ZM127.82,113.8l-7.56-7.75,7.48-7.83,7.57,7.75-7.49,7.83ZM138.34,109.08l7.57,7.76-7.49,7.83-7.56-7.75,7.48-7.84ZM124.82,116.95l-7.49,7.83-7.57-7.75,7.49-7.83,7.57,7.75ZM106.73,113.92l-7.57-7.76,7.49-7.83,7.57,7.75-7.49,7.84ZM96.13,103.05l-7.57-7.75,7.49-7.83,7.57,7.75-7.49,7.83ZM93.12,106.19l-7.48,7.84-7.57-7.76,7.49-7.83,7.56,7.75ZM75.04,103.16l-7.57-7.75,7.49-7.83,7.56,7.75-7.48,7.83ZM75.07,109.42l7.56,7.75-7.49,7.83-7.56-7.75,7.49-7.83ZM85.67,120.28l7.56,7.75-7.49,7.83-7.56-7.75,7.49-7.83ZM88.67,117.14l7.49-7.83,7.56,7.75-7.48,7.83-7.57-7.75ZM106.76,120.17l7.56,7.75-7.48,7.83-7.57-7.75,7.49-7.83ZM117.36,131.03l7.56,7.76-7.48,7.83-7.57-7.75,7.49-7.84ZM120.36,127.89l7.49-7.83,7.56,7.75-7.48,7.83-7.57-7.75ZM138.45,130.92l7.56,7.76-7.48,7.83-7.57-7.76,7.49-7.83ZM141.46,127.78l7.48-7.83,7.57,7.75-7.49,7.83-7.56-7.75ZM159.54,130.81l7.57,7.75-7.49,7.84-7.56-7.76,7.48-7.83ZM162.55,127.67l7.49-7.83,7.56,7.75-7.49,7.83-7.56-7.75ZM159.51,124.56l-7.56-7.75,7.49-7.84,7.56,7.76-7.49,7.83ZM148.91,113.69l-7.56-7.75,7.49-7.83,7.56,7.75-7.49,7.83ZM138.31,102.83l-7.56-7.75,7.49-7.83,7.56,7.75-7.49,7.83ZM127.71,91.97l-7.56-7.76,7.49-7.83,7.56,7.75-7.49,7.84ZM124.71,95.11l-7.49,7.83-7.56-7.75,7.48-7.83,7.57,7.75ZM106.62,92.08l-7.56-7.76,7.48-7.83,7.57,7.76-7.49,7.83ZM96.02,81.21l-7.56-7.75,7.48-7.83,7.57,7.75-7.49,7.83ZM93.02,84.36l-7.49,7.83-7.57-7.75,7.49-7.84,7.57,7.76ZM74.93,81.32l-7.57-7.75,7.49-7.83,7.57,7.75-7.49,7.83ZM71.92,84.47l-7.48,7.83-7.57-7.75,7.49-7.83,7.56,7.75ZM61.43,95.44l-7.49,7.83-7.56-7.75,7.49-7.83,7.56,7.75ZM64.47,98.55l7.56,7.76-7.49,7.83-7.56-7.76,7.49-7.83ZM64.57,120.39l7.57,7.75-7.49,7.84-7.56-7.76,7.48-7.83ZM75.17,131.26l7.57,7.75-7.49,7.83-7.56-7.75,7.48-7.83ZM85.77,142.12l7.57,7.75-7.49,7.83-7.56-7.75,7.48-7.83ZM88.78,138.98l7.49-7.84,7.56,7.76-7.49,7.83-7.56-7.75ZM106.87,142.01l7.56,7.75-7.49,7.83-7.56-7.75,7.49-7.83ZM117.47,152.87l7.56,7.75-7.49,7.84-7.56-7.76,7.49-7.83ZM120.47,149.73l7.49-7.83,7.56,7.75-7.49,7.83-7.56-7.75ZM138.56,152.76l7.56,7.75-7.49,7.84-7.56-7.76,7.49-7.83ZM141.56,149.62l7.49-7.83,7.57,7.75-7.49,7.83-7.57-7.75ZM159.65,152.65l7.56,7.75-7.48,7.83-7.57-7.75,7.49-7.83ZM162.66,149.51l7.48-7.83,7.57,7.75-7.49,7.83-7.56-7.75ZM180.74,152.54l7.57,7.75-7.49,7.83-7.56-7.75,7.48-7.83ZM183.75,149.4l7.49-7.83,7.56,7.75-7.49,7.83-7.56-7.75ZM180.71,146.28l-7.56-7.75,7.49-7.83,7.56,7.75-7.49,7.83ZM180.61,124.45l-7.57-7.76,7.49-7.83,7.56,7.76-7.48,7.83ZM170.01,113.58l-7.57-7.75,7.49-7.83,7.56,7.75-7.48,7.83ZM159.41,102.72l-7.57-7.75,7.49-7.83,7.56,7.75-7.48,7.83ZM148.81,91.86l-7.57-7.76,7.49-7.83,7.56,7.75-7.48,7.84ZM138.21,80.99l-7.57-7.75,7.49-7.83,7.56,7.75-7.48,7.83ZM127.61,70.13l-7.57-7.75,7.49-7.84,7.56,7.76-7.48,7.83ZM124.6,73.27l-7.49,7.83-7.56-7.75,7.49-7.83,7.56,7.75ZM106.51,70.24l-7.56-7.75,7.49-7.84,7.56,7.76-7.49,7.83ZM95.91,59.37l-7.56-7.75,7.49-7.83,7.56,7.75-7.49,7.83ZM92.91,62.52l-7.49,7.83-7.56-7.75,7.48-7.83,7.57,7.75ZM74.82,59.49l-7.56-7.76,7.48-7.83,7.57,7.75-7.49,7.84ZM71.82,62.63l-7.49,7.83-7.57-7.75,7.49-7.83,7.57,7.75ZM61.32,73.6l-7.48,7.83-7.57-7.75,7.49-7.83,7.56,7.75ZM43.24,70.57l-7.57-7.75,7.49-7.83,7.56,7.75-7.48,7.83ZM43.27,76.83l7.56,7.75-7.49,7.83-7.56-7.75,7.49-7.83ZM43.37,98.66l7.57,7.76-7.49,7.83-7.56-7.75,7.48-7.84ZM53.97,109.53l7.57,7.75-7.49,7.83-7.56-7.75,7.48-7.83ZM54.08,131.37l7.56,7.75-7.48,7.83-7.57-7.75,7.49-7.83ZM64.68,142.23l7.56,7.75-7.48,7.83-7.57-7.75,7.49-7.83ZM75.28,153.09l7.56,7.76-7.48,7.83-7.57-7.75,7.49-7.84ZM85.88,163.96l7.56,7.75-7.48,7.83-7.57-7.75,7.49-7.83ZM88.89,160.81l7.48-7.83,7.57,7.76-7.49,7.83-7.56-7.76ZM106.97,163.85l7.57,7.75-7.49,7.83-7.56-7.75,7.48-7.83ZM117.57,174.71l7.57,7.75-7.49,7.83-7.56-7.75,7.48-7.83ZM120.58,171.57l7.49-7.83,7.56,7.75-7.49,7.83-7.56-7.75ZM138.67,174.6l7.56,7.75-7.49,7.83-7.56-7.75,7.49-7.83ZM141.67,171.46l7.49-7.83,7.56,7.75-7.49,7.83-7.56-7.75ZM159.76,174.49l7.56,7.75-7.49,7.83-7.56-7.75,7.49-7.83ZM162.76,171.35l7.49-7.84,7.56,7.76-7.48,7.83-7.57-7.75ZM180.85,174.38l7.56,7.75-7.48,7.83-7.57-7.75,7.49-7.83ZM183.86,171.23l7.48-7.83,7.57,7.76-7.49,7.83-7.56-7.76ZM194.35,160.26l7.49-7.83,7.56,7.75-7.49,7.83-7.56-7.75ZM201.81,146.17l-7.57-7.75,7.49-7.83,7.56,7.75-7.48,7.83ZM191.21,135.31l-7.57-7.75,7.49-7.83,7.56,7.75-7.48,7.83ZM191.1,113.47l-7.57-7.75,7.49-7.83,7.57,7.75-7.49,7.83ZM180.5,102.61l-7.57-7.75,7.49-7.84,7.57,7.76-7.49,7.83ZM169.9,91.74l-7.57-7.75,7.49-7.83,7.57,7.75-7.49,7.83ZM159.3,80.88l-7.57-7.75,7.49-7.83,7.57,7.75-7.49,7.83ZM148.7,70.02l-7.56-7.76,7.48-7.83,7.57,7.76-7.49,7.83ZM138.1,59.15l-7.56-7.75,7.48-7.83,7.57,7.75-7.49,7.83ZM127.5,48.29l-7.56-7.75,7.48-7.83,7.57,7.75-7.49,7.83ZM124.49,51.43l-7.48,7.83-7.57-7.75,7.49-7.83,7.56,7.75ZM106.41,48.4l-7.57-7.75,7.49-7.83,7.56,7.75-7.48,7.83ZM95.81,37.54l-7.57-7.76,7.49-7.83,7.56,7.76-7.48,7.83ZM92.8,40.68l-7.49,7.83-7.56-7.75,7.49-7.83,7.56,7.75ZM74.71,37.65l-7.56-7.75,7.49-7.84,7.56,7.76-7.49,7.83ZM71.71,40.79l-7.49,7.83-7.56-7.75,7.48-7.83,7.57,7.75ZM61.22,51.77l-7.49,7.83-7.56-7.76,7.48-7.83,7.57,7.76ZM43.13,48.73l-7.56-7.75,7.48-7.83,7.57,7.75-7.49,7.83ZM40.12,51.88l-7.48,7.83-7.57-7.75,7.49-7.84,7.56,7.76ZM32.67,65.96l7.56,7.75-7.49,7.84-7.56-7.76,7.49-7.83ZM29.74,84.69l-7.49,7.83-7.56-7.75,7.48-7.83,7.57,7.75ZM32.77,87.8l7.57,7.75-7.49,7.83-7.56-7.75,7.48-7.83ZM32.88,109.64l7.56,7.75-7.48,7.83-7.57-7.75,7.49-7.83ZM43.48,120.5l7.56,7.76-7.48,7.83-7.57-7.76,7.49-7.83ZM43.59,142.34l7.56,7.75-7.49,7.83-7.56-7.75,7.49-7.83ZM54.19,153.21l7.56,7.75-7.49,7.83-7.56-7.75,7.49-7.83ZM64.79,164.07l7.56,7.75-7.49,7.83-7.56-7.75,7.49-7.83ZM75.39,174.93l7.56,7.75-7.49,7.84-7.56-7.76,7.49-7.83ZM85.99,185.8l7.56,7.75-7.49,7.83-7.56-7.75,7.49-7.83ZM88.99,182.65l7.49-7.83,7.56,7.75-7.48,7.84-7.57-7.76ZM107.08,185.69l7.56,7.75-7.48,7.83-7.57-7.75,7.49-7.83ZM117.68,196.55l7.56,7.75-7.48,7.83-7.57-7.75,7.49-7.83ZM120.69,193.41l7.48-7.84,7.57,7.76-7.49,7.83-7.56-7.75ZM138.77,196.44l7.57,7.75-7.49,7.83-7.56-7.75,7.48-7.83ZM141.78,193.3l7.49-7.84,7.56,7.76-7.49,7.83-7.56-7.75ZM159.87,196.33l7.56,7.75-7.49,7.83-7.56-7.75,7.49-7.83ZM162.87,193.18l7.49-7.83,7.56,7.75-7.49,7.84-7.56-7.76ZM180.96,196.22l7.56,7.75-7.49,7.83-7.56-7.75,7.49-7.83ZM183.96,193.07l7.49-7.83,7.56,7.75-7.48,7.84-7.57-7.76ZM194.46,182.1l7.48-7.83,6.77,6.94.25.25c-.3.7-.6,1.4-.92,2.09l-1.81,1.89-4.21,4.41-7.56-7.75ZM204.95,171.12l7.49-7.83.99,1.02.42.43c-.76,4.24-1.83,8.33-3.19,12.24l-5.71-5.86ZM214.25,133.16l-.46.48-1.49,1.56-7.57-7.75,7-7.32c1.08,4.33,1.93,8.67,2.52,13.03M201.7,124.34l-7.57-7.76,7.49-7.83,7.57,7.75-7.49,7.84ZM206.44,103.71c.79,2,1.53,4.01,2.22,6.03l-4.03-4.13,1.81-1.9ZM204.61,99.33l-.23.25-2.79,2.92-7.56-7.76,5.54-5.79c1.83,3.41,3.52,6.88,5.04,10.38M197.35,84.98l-.15.16-6.21,6.49-7.56-7.75,7.99-8.35c2.1,3.09,4.09,6.25,5.93,9.45M187.88,72.94l-7.49,7.83-7.56-7.75,7.49-7.83,7.56,7.75ZM177.28,62.07l-7.49,7.84-7.56-7.76,7.49-7.83,7.56,7.75ZM166.68,51.21l-7.49,7.83-7.56-7.75,7.49-7.83,7.56,7.75ZM148.08,33.05c2.08,1.34,4.15,2.74,6.19,4.22l-.54.67,2.35,2.41-7.49,7.83-7.56-7.75,6.91-7.24.14-.14ZM134.26,25.56l.21-.23c3.31,1.63,6.6,3.42,9.85,5.37l-6.33,6.61-7.56-7.75,3.83-4ZM130.33,23.38l-2.94,3.07-6.79-6.96c3.25,1.14,6.5,2.44,9.73,3.89M124.39,29.59l-7.49,7.84-7.56-7.76,7.48-7.83,7.57,7.75ZM102.18,15.21l.43-.45c3.09.54,6.19,1.22,9.3,2.05l1.06,1.08.82.84-7.49,7.83-7.56-7.75,3.44-3.6ZM97.34,13.98l-1.64,1.72-2.05-2.1c1.23.1,2.46.23,3.69.38M82.35,13.99l.64-.66c1.42-.05,2.85-.06,4.29-.04l.63.65,4.78,4.9-7.48,7.83-7.57-7.75,4.71-4.93ZM76.55,13.78l-1.94,2.03-1.54-1.58c1.15-.18,2.31-.32,3.48-.45M67.93,15.19l.4.41,3.27,3.35-7.49,7.83-7.8-7.99c3.74-1.52,7.62-2.72,11.62-3.6M53.54,22.17l7.57,7.76-7.49,7.83-7.56-7.75,7.48-7.84ZM45.45,24.36l-2.43,2.53-.53-.54c.97-.7,1.96-1.36,2.96-1.99M33.69,33.84c1.7-1.72,3.47-3.33,5.32-4.84l.08.09.93.95-7.49,7.83-1.29-1.32-.03-.04c.8-.91,1.62-1.8,2.48-2.67M28.43,39.89l1.09,1.12-6.17,6.46c1.53-2.63,3.21-5.17,5.08-7.58M17.72,59.64l1.39-1.45,2.96-3.09,7.56,7.75-7.49,7.83-5.65-5.8-.33-.33c.47-1.66.99-3.3,1.56-4.91M14.91,69.49l4.23,4.34-5.86,6.12c.35-3.56.88-7.06,1.63-10.46M12.82,89.35v-.27l6.42,6.58-5.7,5.97c-.47-4.14-.72-8.24-.72-12.28M14.79,106.61l7.49-7.83,7.56,7.75-7.48,7.83-7.4-7.59-.17-.16ZM15.56,113.62l3.79,3.88-2.24,2.35c-.57-2.08-1.09-4.16-1.55-6.23M18.53,124.65l.31-.33,3.55-3.71,7.56,7.76-7.26,7.6c-1.57-3.76-2.97-7.54-4.16-11.32M32.99,131.48l7.56,7.75-7.49,7.83-7.56-7.75,7.49-7.83ZM29.77,150.51c-.26-.46-.51-.92-.76-1.38l1.05,1.07-.29.31ZM38.1,163.75c-2.16-3.06-4.18-6.17-6.07-9.32l.15-.15.92-.96,7.56,7.75-2.56,2.68ZM40.69,167.33l.08-.09,2.92-3.06,7.57,7.75-3.74,3.91c-2.4-2.79-4.67-5.63-6.83-8.51M57.99,186.84c-1.89-1.8-3.74-3.66-5.56-5.58-.68-.71-1.35-1.44-2.01-2.16l.02-.03,3.85-4.03,7.57,7.76-3.85,4.02-.02.02ZM69.56,196.69l-.08.09c-2.83-2.21-5.6-4.54-8.31-6.98l3.72-3.89,7.57,7.75-2.9,3.03ZM82.21,205.41l-.15.15c-3.08-1.91-6.11-3.96-9.09-6.15l2.52-2.64,7.57,7.75-.85.89ZM85.88,207.86l.21-.23.75.77c-.32-.18-.64-.36-.96-.54M89.1,204.49l7.49-7.83,7.56,7.75-7.49,7.83-7.56-7.75ZM111.48,218.7l-.32.33c-3.72-1.16-7.42-2.53-11.07-4.08l7.1-7.43,7.56,7.76-3.27,3.42ZM115.86,220.4l1.93-2.01,3.17,3.25c-1.7-.37-3.4-.78-5.1-1.24M128.37,222.99s-.02-.01-.03-.01l-.83-.85-6.72-6.89,7.49-7.83,7.56,7.76-7.02,7.34-.45.48ZM133.77,223.62l5.11-5.34,5.58,5.71c-3.49.09-7.06-.04-10.69-.37M141.88,215.13l7.49-7.83,7.57,7.75-7.49,7.84-7.57-7.76ZM155.31,223.04l4.66-4.87,3.17,3.24c-2.55.68-5.16,1.21-7.83,1.63M167.52,219.68l-4.54-4.66,7.48-7.83,7.57,7.75-1.31,1.37c-2.85,1.43-5.82,2.66-8.88,3.69l-.32-.32ZM253.74,271.61c-4.26-4.17-7.56-7.37-9.23-8.94-.05-.04-.09-.09-.14-.13-1.7-1.59-3.79-3.51-6.13-5.54-3.07-2.67-6.57-5.55-10.14-8.18-4.08-3-8.26-5.7-12.05-7.4-11-4.94-22.7-6.98-37.51-9.57l-3.07-.54c10.5-4.1,19.94-10.26,27.94-18.38,7.93-8.05,14.02-17.61,18.17-28.28l.38,2.64c2.45,17.36,4.22,29.91,9.75,42.4,1.39,3.14,3,6.21,4.86,9.26,2.23,3.66,4.82,7.28,7.84,10.95,1.81,2.21,3.78,4.44,5.93,6.71.1.12.21.23.32.35.02.02.04.05.07.07l8.72,8.94,47.33,48.55-4.68,4.76c-9.54-9.44-34.19-33.83-48.36-47.67M388.39,421.42l-82.67-87.23,16.38-16.64,82.67,87.23-16.38,16.64Z"/>
      <path class="cls-1" d="M259.45,265.97c-1.41,1.3-2.84,2.69-4.29,4.16l-1.42,1.48c-4.26-4.17-7.56-7.37-9.23-8.94-.05-.04-.09-.09-.14-.13l1.71-1.78.07-.07c1.41-1.44,2.8-2.8,4.19-4.08.1.12.21.23.32.35.02.02.04.05.07.07l8.72,8.94Z"/>
      <path class="cls-1" d="M300.56,421.53c-8.08-28.32-36.9-45.42-65.6-38.94-.56.12-1.11.26-1.65.4-.46.12-.92.24-1.38.38-21.89,6.25-37.99,25.69-40.07,48.38-.06.59-.1,1.18-.14,1.78-.37,6.22.32,12.43,2.04,18.47,4.83,16.92,17.59,30.69,34.14,36.83.39.15.78.29,1.16.42,5.86,2.03,11.95,3.06,18.1,3.06,5.13,0,10.25-.72,15.23-2.14,14.24-4.06,26.06-13.45,33.27-26.43,7.22-12.98,8.95-27.97,4.89-42.21M233.36,468.87c.13-1,.33-1.97.59-2.91.03-.1.06-.2.09-.3l1.18-.4-.29-2c.42-.9.91-1.77,1.45-2.59.14-.2.27-.41.42-.62l.22-.29c.33-.42.68-.83,1.02-1.22.72-.8,1.54-1.59,2.34-2.25,1.41-1.11,2.93-2.03,4.48-2.74,1.58-.66,3.25-1.14,4.94-1.41,2.48-.33,5.21-.31,8.33.06,3.06.4,6.2,1.06,9.27,1.72,1.48.31,2.95.63,4.43.92,4.4.86,9.54,1.67,14.81,1.33-5.49,11.21-15.36,19.5-27.42,22.94-8.03,2.29-16.48,2.26-24.46-.1-.63-1.55-1.09-3.17-1.35-4.78-.23-1.76-.26-3.56-.07-5.35h0ZM279.59,444.16h-.1c-3.12-.4-6.32-1.08-9.41-1.74-2.31-.49-4.7-1-7.12-1.4-5.15-.86-11.94-1.6-18.78.3-5.64,1.57-10.93,4.88-14.89,9.32-4.08,4.57-6.68,10.08-7.5,15.95-.29,2.04-.4,3.99-.33,5.91-8.05-5.78-13.91-14.08-16.64-23.64-.85-2.99-1.39-6.05-1.6-9.13,6.67.08,13.21-1.77,18.63-5.29h0c7-4.55,12.06-11.54,14.25-19.68.98-3.62,1.41-7.27,1.83-10.81l.15-1.25c.29-2.43.58-4.46,1.01-6.44.23-1.06.49-2.01.77-2.9,0,0,0,0,0,0,21.83-3.68,43.52,9.95,49.62,31.34,1.75,6.12,2.14,12.64,1.15,18.91-.86.25-1.74.45-2.62.59-2.48.33-5.25.32-8.44-.03M226.58,399.87c-.11.89-.22,1.79-.33,2.68l-.11.95c-.38,3.11-.82,6.39-1.77,9.4-.12.36-.24.71-.39,1.12l-.21.53c-.29.67-.62,1.35-.97,2-.33.61-.71,1.25-1.12,1.86l-.29.42-.51.58-.06.18c-.07.09-.14.18-.21.26-1.01,1.24-2.16,2.39-3.37,3.39-1.48,1.15-3.06,2.12-4.68,2.86-1.8.76-3.7,1.31-5.62,1.62-.97.13-1.94.2-2.91.22,2.68-12.89,11.21-24.15,22.84-30.23-.12.8-.22,1.54-.3,2.17"/>
    </g>
  </g>
</svg>