<?xml version="1.0" encoding="UTF-8"?>
<svg id="Camada_2" data-name="Camada 2" xmlns="http://www.w3.org/2000/svg" xmlns:xlink="http://www.w3.org/1999/xlink" viewBox="0 0 501.97 492.31">
  <defs>
    <style>
      .cls-1 {
        fill: #fff;
      }

      .cls-2 {
        fill: none;
      }

      .cls-3 {
        clip-path: url(#clippath);
      }
    </style>
    <clipPath id="clippath">
      <rect class="cls-2" width="501.97" height="492.31"/>
    </clipPath>
  </defs>
  <g id="Camada_1-2" data-name="Camada 1">
    <g class="cls-3">
      <path class="cls-1" d="M485.05,0H16.92C7.57,0,0,7.57,0,16.92v458.48c0,9.34,7.57,16.92,16.92,16.92h467.89c9.34,0,16.91-7.57,16.92-16.91l.24-458.48C501.97,7.58,494.4,0,485.05,0M325.49,374.05v-57.71h157.65v156.63h-157.65v-39.41c0-5.04-4.08-9.12-9.12-9.12h-.06c-5.04,0-9.12,4.08-9.12,9.12v39.41h-67.13l.02-39.41c0-5.04-4.08-9.13-9.12-9.13s-9.18,4.15-9.12,9.22l.43,38.55-.76.76H18.84v-230.37h202.89v131.45c0,5.04,4.08,9.12,9.12,9.12h.11c5.04,0,9.12-4.08,9.12-9.12v-158.41c0-4.92-3.99-8.91-8.91-8.91h0c-4.92,0-8.91,3.99-8.91,8.91v8.14H18.84V17.82l203.42.25v142.08c0,4.92,3.99,8.91,8.91,8.91s8.91-3.99,8.91-8.91v-26.89s50.76,0,50.76,0c5.06,0,9.15-4.1,9.15-9.15v-.51c0-5.06-4.1-9.15-9.15-9.15h-50.78V18.08h243.09v161.46h-163.11c-5.06,0-9.15,4.1-9.15,9.15s4.1,9.15,9.15,9.15h24.79v50.6c0,5.06,4.1,9.15,9.15,9.15h.53c5.05,0,9.15-4.1,9.15-9.15v-50.6h119.48v100.18h-166.84c-5.04,0-9.12,4.08-9.12,9.12v66.89c0,5.04,4.09,9.12,9.12,9.12h.06c5.04,0,9.12-4.08,9.12-9.12"/>
    </g>
  </g>
</svg>