<?xml version="1.0" encoding="UTF-8"?>
<svg id="Camada_2" data-name="Camada 2" xmlns="http://www.w3.org/2000/svg" xmlns:xlink="http://www.w3.org/1999/xlink" viewBox="0 0 494.33 387.81">
  <defs>
    <style>
      .cls-1 {
        fill: #fff;
      }

      .cls-2 {
        fill: none;
      }

      .cls-3 {
        clip-path: url(#clippath);
      }
    </style>
    <clipPath id="clippath">
      <rect class="cls-2" width="494.33" height="387.81"/>
    </clipPath>
  </defs>
  <g id="Camada_1-2" data-name="Camada 1">
    <g class="cls-3">
      <path class="cls-1" d="M236.35,61.12c0,9.42-1.44,23.24,13.52,21.2,13.55-3.58,8.91-25.92,8.91-37.67v-19.66c-.01-10.41,2.32-26.16-13.15-24.91-11.29,2.57-9.24,14.33-9.26,23.27v37.78Z"/>
      <path class="cls-1" d="M372.62,136.67c5.2-2.4,8.13-5.74,12.11-9.78l12.32-12.43c4.89-4.9,25.32-22.65,27.26-28.12,2.97-8.36-3.64-16.85-12.32-14.51-8.38,1.42-16.33,13.17-22.28,19.02l-19.54,19.3c-4.83,4.74-12.62,9.54-10.81,17.4,1.35,5.84,7.55,9.34,13.26,9.12"/>
      <path class="cls-1" d="M83.55,100.01l27.2,27.42c4.91,4.99,8.51,10.27,16.34,9.25,23.29-8.03-4.05-28.72-12.13-36.88-7.4-7.49-23.92-28.6-34.3-27.96-6.64,1.36-10.47,7.08-9.18,13.79,1.06,5.51,8.32,10.66,12.08,14.39"/>
      <path class="cls-1" d="M182.66,272.54c12.82,10.74,26.27,21.35,39.25,32.01l13.19,10.84c15.72,13.1,13.99,7.98,28.27-3.28l32.3-25.53c25.46-20.27,22.97-21.49,54.84-21.47l26.51.03c0-9.67.02-19.24-1.47-28.83-9.48-60.85-65.53-106.92-126.67-106.94-1.09,0-2.17.01-3.25.11-65.5,2.3-116.98,46.55-126.75,112.74l-95.91-.02c-4.49-.01-9.17-.3-13.62.35-12.59,1.84-12.41,20.64.26,22.46,3.81.55,7.92.18,11.77.14l127.4-.02c12.08-.01,23.85-.58,33.88,7.42M142.06,242.22c.93-16.09,9.98-35.73,19.88-48.4,20.78-26.61,45.75-37.71,77.95-41.58,53.76-4.74,106.36,35.66,113.17,89.99-35.31,0-37.39-.26-66.89,23.01l-34.12,26.96c-1.65,1.27-3.22,2.67-4.81,4.02-4.38-3.28-8.46-7.04-12.7-10.51l-25.44-20.72c-26.78-22.06-33.71-22.81-67.04-22.75"/>
      <path class="cls-1" d="M484.41,242.58c-7.05-1.04-17.87-.37-25.32-.37h-50.03v22.92h51.43c8.33,0,24.23,2.44,30.74-3.25,5.86-7.29,3.28-17.8-6.83-19.3"/>
      <path class="cls-1" d="M410.02,365.48H71.25s0,22.33,0,22.33h352.03v-22.34c-4.39.28-8.86.02-13.26,0"/>
    </g>
  </g>
</svg>