<?xml version="1.0" encoding="UTF-8"?>
<svg id="Camada_2" data-name="Camada 2" xmlns="http://www.w3.org/2000/svg" xmlns:xlink="http://www.w3.org/1999/xlink" viewBox="0 0 494.33 353.89">
  <defs>
    <style>
      .cls-1 {
        fill: #fff;
      }

      .cls-2 {
        fill: none;
      }

      .cls-3 {
        clip-path: url(#clippath);
      }
    </style>
    <clipPath id="clippath">
      <rect class="cls-2" width="494.33" height="353.89"/>
    </clipPath>
  </defs>
  <g id="Camada_1-2" data-name="Camada 1">
    <g class="cls-3">
      <path class="cls-1" d="M492.36,264.31c-25.32-34.82-53.33-57.43-83.42-67.38,29.65-59.41,15.1-113.85,14.43-116.29-1.05-3.78-4.06-6.52-7.66-6.99-9.89-1.29-19.56-1.94-28.74-1.94-26.87,0-50.66,5.55-70.93,16.47C297.26,27.97,254.53,2.32,252.61,1.19,251.29.41,249.78,0,248.27,0c-2.03,0-4.04.75-5.64,2.11-32.33,27.5-53.31,57.97-62.53,90.74-28.7-17.34-56.06-21.25-74.83-21.25-20.26,0-33.85,4.38-35.33,4.88-3.47,1.17-5.97,4.46-6.37,8.38-4.78,47.03,1.61,86.43,18.99,117.35-46.67,19.59-78.55,58.42-80.28,60.56-2.58,3.18-3.01,7.79-1.07,11.48.42.8,42.91,79.55,122.76,79.55,3.19,0,6.42-.13,9.61-.38,49.68-3.83,84.58-34.56,99.49-47.69h.02s.02-.03.02-.03c24.76-22.22,36.89-38.64,47.58-53.12,2.03-2.75,3.73-5.05,5.26-7.09.38-.29.77-.59,1.2-.9l.06-.04.05-.04c19.89-15.32,50.89-33.59,85.58-33.59,5.86,0,11.72.53,17.45,1.57,1.31.76,2.78,1.19,4.29,1.19.35,0,.69-.03,1.03-.07,27.88,6.7,54.22,26.04,78.38,57.56-9.34,14.7-41.74,57.64-103.67,62.46-3.58.28-7.11.42-10.5.42-40.44,0-62.5-20.06-80.32-41.74-1.73-2.11-4.21-3.32-6.82-3.32-2.25,0-4.41.9-6.09,2.53-3.75,3.63-4.08,9.91-.72,13.99,8.43,10.26,20.2,23.29,36.56,33.14,17.03,10.24,35.87,15.23,57.59,15.23,3.77,0,7.67-.16,11.6-.46,85.41-6.65,120.2-75.36,121.64-78.29,1.72-3.48,1.37-7.73-.89-10.83M372.81,193.75v-2.66h0c-22.85,0-44.03,6.78-62.09,15.77,9.1-19.85,15.36-44.38,13.55-73.29-.53-8.77-1.64-17.43-3.29-25.83,18.37-10.73,40.53-16.18,65.99-16.18,6.48,0,13.26.36,20.18,1.06,2.79,16.33,6.29,57.2-16.87,99.82-5.77-.89-11.62-1.34-17.48-1.34v2.66ZM272.92,231.52l-.12.14-.12.15c-2.15,2.82-4.32,5.76-6.24,8.35-10.15,13.75-21.66,29.33-44.95,50.23-22.37,19.69-50.49,40.26-89.22,43.25-2.79.22-5.59.33-8.34.33-56.76,0-92.5-47.17-103.16-63.49,13.56-14.57,57.69-57.37,109.88-59.47,1.31-.05,2.64-.08,3.94-.08,30.54,0,59.41,14.12,85.81,41.96.27.35.57.67.88.98.23.22.42.42.64.7,1.72,2.09,4.2,3.3,6.8,3.3,2.25,0,4.42-.9,6.1-2.53,1.82-1.77,2.9-4.21,3.03-6.85.13-2.65-.69-5.19-2.32-7.16h0v-.03l-.34-.38c-.32-.37-.63-.72-.96-1.06-18.89-24.85-48.82-74.32-39.45-128.81.14-.56.24-1.12.29-1.68,5.82-31.11,23.91-60.45,53.83-87.26,12.37,9.24,41.32,35.28,52.74,83.05.03.14.06.28.1.41,2.24,9.42,3.69,19.28,4.3,29.35,2.7,43.06-15.5,75.1-31.25,94.42l-.67.81-.11.13c-.24.29-.47.57-.81.96-.1.11-.19.21-.28.32M179.68,171.07c2.91,11.68,7.1,23.46,12.51,35.2-18.34-10.07-37.6-15.16-57.45-15.16-1.59,0-3.21.03-4.81.1-10.18.41-20.02,2.12-29.4,4.73-16.12-26.18-22.65-60.42-19.42-101.94,5.27-1.1,13.53-2.35,23.9-2.35,17.78,0,44.1,3.85,70.96,21.54-2.43,18.73-1.2,38.17,3.72,57.88"/>
    </g>
  </g>
</svg>